<svg width="164" height="116" viewBox="0 0 164 116" fill="none" xmlns="http://www.w3.org/2000/svg">
<path fill-rule="evenodd" clip-rule="evenodd" d="M9.65918 0.713086H153.644C156.793 0.713086 157.677 0.713086 159.033 1.16883C160.636 1.7545 161.906 3.02412 162.491 4.62656C162.947 5.98211 162.947 6.86554 162.947 10.0141C162.947 18.7339 162.947 105.608 162.947 105.608C162.947 108.757 162.947 109.64 162.491 110.996C161.906 112.598 160.636 113.868 159.033 114.453C157.677 114.909 156.793 114.909 153.644 114.909C144.921 114.909 9.65918 114.909 9.65918 114.909C6.50976 114.909 5.62588 114.909 4.27011 114.453C2.66708 113.868 1.39709 112.598 0.811255 110.996C0.355316 109.64 0.355316 108.757 0.355316 105.608C0.355316 96.8882 0.355316 10.0141 0.355316 10.0141C0.355316 6.86554 0.355316 5.98211 0.811255 4.62656C1.39709 3.02412 2.66708 1.7545 4.27011 1.16883C5.62588 0.713086 6.50976 0.713086 9.65918 0.713086Z" stroke="#E7E7E7" stroke-width="0.226059"/>
</svg>
