<svg width="49" height="16" viewBox="0 0 49 16" fill="none" xmlns="http://www.w3.org/2000/svg">
<path d="M0.260417 0.916689L0 1.17711V8.16669V15.1563L0.260417 15.4167L0.510417 15.6667L15.75 15.6459C30.5521 15.6146 31 15.6042 31.4583 15.4167C31.7188 15.3021 35.2708 13.5 39.3646 11.4063C44.1875 8.9271 46.9583 7.45835 47.25 7.19794C47.5 6.97919 47.8333 6.54169 47.9896 6.20835C48.2396 5.70835 48.2812 5.47919 48.2812 4.78127C48.2812 4.02085 48.2396 3.87502 47.8542 3.05211C47.3125 1.92711 46.9167 1.47919 46.1146 1.09377C45.2708 0.687523 44.6667 0.604189 43.8958 0.802106C43.5312 0.895856 40.8229 2.20836 37.375 3.94794L31.4583 6.9271L31.5417 6.58335C31.6875 5.90627 31.6146 4.8021 31.3854 4.3021C31.0729 3.61461 30.4896 3.01044 29.8125 2.67711L29.2188 2.38544L25.4792 2.35419L21.7292 2.32294L21.2292 1.85419C20.9479 1.59377 20.4062 1.22919 20.0208 1.05211L19.3229 0.718773L9.91667 0.687523L0.520833 0.656273L0.260417 0.916689ZM9.16667 8.16669V14H5.41667H1.66667V8.16669V2.33336H5.41667H9.16667V8.16669ZM19.1042 2.45836C19.4062 2.54169 19.7292 2.78127 20.1979 3.26044L20.8646 3.94794L24.9062 4.00002C28.7812 4.0521 28.9583 4.06252 29.2292 4.27085C29.7708 4.6771 29.9479 5.01044 29.9479 5.65627C29.9479 6.15627 29.8958 6.32294 29.6458 6.64585C29.1146 7.34377 29.1979 7.33335 23.75 7.33335H18.8438L18.5938 7.59377C18.4271 7.75002 18.3333 7.96877 18.3333 8.16669C18.3333 8.3646 18.4271 8.58335 18.5938 8.7396L18.8438 9.00002H24.9583H31.0729L37.5417 5.72919C41.0938 3.92711 44.1562 2.42711 44.3438 2.38544C44.8021 2.29169 45.4271 2.48961 45.75 2.82294C46.1042 3.19794 46.6667 4.38544 46.6667 4.76044C46.6667 5.1771 46.4271 5.6771 46.0833 5.9896C45.9167 6.13544 42.4062 7.9896 38.2812 10.1042L30.7812 13.9479L20.8125 13.9792L10.8333 14V8.16669V2.33336H14.75C17.4896 2.33336 18.8021 2.37502 19.1042 2.45836Z" fill="white"/>
</svg>
