<svg width="21" height="20" viewBox="0 0 21 20" fill="none" xmlns="http://www.w3.org/2000/svg">
<path d="M6.63623 0.230301C4.64665 0.480301 2.3029 1.4803 0.740397 2.7303L0.35498 3.03238L0.625814 3.33447C0.771647 3.51155 1.02165 3.80322 1.1779 3.9803L1.46956 4.32405L2.22998 3.77197C2.65706 3.4803 3.37581 3.05322 3.83415 2.83447C4.68831 2.43863 6.46956 1.92822 7.01123 1.92822H7.31331V3.17822V4.42822H8.19873H9.08415V3.1678V1.90738L9.66748 1.9803C13.1466 2.40738 16.4383 5.03238 17.7821 8.43864C18.0321 9.06364 18.4487 10.7824 18.4591 11.1678C18.4591 11.272 18.1362 11.3032 17.2091 11.3032H15.9591V12.1886V13.0741H17.2196H18.4696L18.3966 13.5636C18.1466 15.3136 17.3654 17.1991 16.3862 18.4282C16.2091 18.647 16.0633 18.8657 16.0633 18.897C16.0737 18.9907 17.2091 19.897 17.3133 19.897C17.4904 19.897 18.3341 18.6782 18.8237 17.7511C21.2612 13.0428 20.4279 7.45947 16.6987 3.70947C14.9071 1.90738 12.6987 0.761551 10.1883 0.313633C9.35498 0.167801 7.44873 0.126133 6.63623 0.230301Z" fill="white"/>
</svg>
