<svg width="20" height="21" viewBox="0 0 20 21" fill="none" xmlns="http://www.w3.org/2000/svg">
<path d="M2.80285 0.636534C1.75077 1.9282 0.854937 3.81362 0.417437 5.60529C0.188271 6.58445 0.104938 8.74071 0.261188 9.80321C0.657021 12.4595 1.8341 14.824 3.71952 16.6886C7.46952 20.4178 13.0529 21.2511 17.7612 18.8136C18.6883 18.324 19.907 17.4803 19.907 17.3032C19.907 17.199 19.0008 16.0636 18.907 16.0532C18.8758 16.0532 18.657 16.199 18.4383 16.3761C17.2091 17.3553 15.3237 18.1365 13.5841 18.3865L13.0841 18.4595V17.2095V15.949H12.1987H11.3133V17.199C11.3133 18.1261 11.282 18.449 11.1883 18.449C10.7924 18.4386 9.07369 18.022 8.44869 17.772C6.05285 16.824 3.8966 14.7928 2.82369 12.4803C2.41744 11.6053 2.09452 10.5011 1.99035 9.65738L1.91744 9.07404H3.17785H4.43827V8.18862V7.30321H3.18827H1.93827V7.00112C1.93827 6.45945 2.44869 4.6782 2.84452 3.82404C3.06327 3.3657 3.49035 2.64695 3.78202 2.21987L4.3341 1.45945L3.99035 1.16778C3.81327 1.00112 3.5216 0.751116 3.34452 0.6157L3.03202 0.355282L2.80285 0.636534Z" fill="white"/>
</svg>
