<svg width="34" height="34" viewBox="0 0 34 34" fill="none" xmlns="http://www.w3.org/2000/svg">
<path d="M14.0938 0.927086C13.8438 1.16667 13.8333 1.21875 13.8333 2.79167V4.39584L13.1354 4.625C12.7396 4.75 11.9688 5.07292 11.4063 5.33334L10.3854 5.80209L9.26042 4.69792C7.64583 3.10417 7.85417 3.05209 5.375 5.54167C2.88542 8.02083 2.9375 7.8125 4.53125 9.42708L5.63542 10.5521L5.16667 11.5729C4.90625 12.1354 4.58333 12.9063 4.45833 13.2917L4.22917 14H2.625C1.05208 14 1 14.0104 0.760417 14.2604L0.5 14.5104V17.3333V20.1563L0.760417 20.4063C1 20.6563 1.05208 20.6667 2.625 20.6667H4.22917L4.45833 21.3646C4.58333 21.7604 4.90625 22.5313 5.16667 23.0938L5.63542 24.1146L4.53125 25.2396C2.9375 26.8542 2.88542 26.6458 5.375 29.125C7.85417 31.6146 7.64583 31.5625 9.26042 29.9688L10.3854 28.8646L11.4063 29.3333C11.9688 29.5938 12.7396 29.9167 13.1354 30.0417L13.8333 30.2708V31.875C13.8333 33.4479 13.8438 33.5 14.0938 33.7396L14.3438 34H17.1667H19.9896L20.2396 33.7396C20.4896 33.5 20.5 33.4479 20.5 31.875V30.2708L21.2083 30.0417C21.5938 29.9167 22.3646 29.5938 22.9271 29.3333L23.9479 28.8646L25.0729 29.9688C26.6875 31.5625 26.4792 31.6146 28.9583 29.125C31.4479 26.6458 31.3958 26.8542 29.8021 25.2396L28.6979 24.1146L29.1667 23.0938C29.4271 22.5313 29.75 21.7604 29.875 21.3646L30.1042 20.6667H31.7083C33.2813 20.6667 33.3333 20.6563 33.5729 20.4063L33.8333 20.1563V17.3333V14.5104L33.5729 14.2604C33.3333 14.0104 33.2813 14 31.7083 14H30.1042L29.875 13.2917C29.75 12.9063 29.4271 12.1354 29.1667 11.5729L28.6979 10.5521L29.8021 9.42708C31.3958 7.8125 31.4479 8.02083 28.9583 5.54167C26.4792 3.05209 26.6875 3.10417 25.0729 4.69792L23.9479 5.80209L22.9271 5.33334C22.3646 5.07292 21.5938 4.75 21.2083 4.625L20.5 4.39584V2.79167C20.5 1.21875 20.4896 1.16667 20.2396 0.927086L19.9896 0.666668H17.1667H14.3438L14.0938 0.927086ZM18.8333 3.83334C18.8333 5.70834 18.8542 5.72917 20.2396 6.09375C20.8333 6.23959 21.7083 6.59375 22.6042 7.05209C23.6146 7.5625 24.1042 7.76042 24.2708 7.70833C24.4063 7.67708 24.9792 7.1875 25.5521 6.60417L26.5938 5.5625L27.7604 6.72917L28.9375 7.89583L27.8438 9.01042C27.1875 9.66667 26.75 10.1979 26.75 10.3229C26.75 10.4375 27.0729 11.1563 27.4583 11.9271C27.9167 12.8229 28.2604 13.6667 28.4063 14.2604C28.7708 15.6458 28.7917 15.6667 30.6667 15.6667H32.1667V17.3333V19H30.6667C28.8021 19 28.7708 19.0208 28.4271 20.3542C28.2917 20.8958 27.9167 21.8125 27.4583 22.7188C26.9375 23.7708 26.7396 24.2604 26.7813 24.4375C26.8229 24.5729 27.3125 25.1458 27.8958 25.7188L28.9375 26.7604L27.7708 27.9271L26.6042 29.1042L25.4896 28.0104C24.8333 27.3542 24.3021 26.9167 24.1771 26.9167C24.0625 26.9167 23.3438 27.2396 22.5729 27.625C21.6771 28.0833 20.8333 28.4271 20.2396 28.5729C18.8542 28.9375 18.8333 28.9583 18.8333 30.8333V32.3333H17.1667H15.5V30.8333C15.5 28.9792 15.4792 28.9375 14.1458 28.5938C13.6354 28.4583 12.6354 28.0521 11.7813 27.625C10.7292 27.1042 10.2292 26.9063 10.0625 26.9479C9.92708 26.9896 9.35417 27.4792 8.78125 28.0625L7.73958 29.1042L6.57292 27.9375L5.39583 26.7708L6.48958 25.6563C7.14583 25 7.58333 24.4688 7.58333 24.3438C7.58333 24.2292 7.26042 23.5104 6.875 22.7396C6.41667 21.8438 6.07292 21 5.92708 20.4063C5.5625 19.0208 5.54167 19 3.66667 19H2.16667V17.3333V15.6667H3.66667C5.53125 15.6667 5.5625 15.6458 5.90625 14.3125C6.04167 13.7708 6.41667 12.8542 6.875 11.9479C7.39583 10.8958 7.59375 10.4063 7.55208 10.2292C7.51042 10.0938 7.02083 9.52083 6.4375 8.94792L5.39583 7.90625L6.5625 6.73959L7.72917 5.5625L8.84375 6.65625C9.5 7.3125 10.0313 7.75 10.1563 7.75C10.2708 7.75 10.9896 7.42708 11.7604 7.04167C12.6563 6.58334 13.5 6.23959 14.0938 6.09375C15.4792 5.72917 15.5 5.70834 15.5 3.83334V2.33334H17.1667H18.8333V3.83334Z" fill="white"/>
</svg>
