<svg width="21" height="21" viewBox="0 0 21 21" fill="none" xmlns="http://www.w3.org/2000/svg">
<path d="M8.60408 0.447992C6.34367 0.843826 4.38534 1.90633 2.8645 3.55216C1.68742 4.81258 0.927004 6.19799 0.468671 7.93758C0.156171 9.08341 0.124921 11.448 0.406171 12.5626C0.895754 14.5001 1.7395 15.9897 3.18742 17.4167C4.57284 18.7917 6.04159 19.6147 7.93742 20.0938C9.052 20.3751 11.4166 20.3438 12.5624 20.0313C14.5103 19.5105 15.7812 18.7813 17.1978 17.3647C18.6145 15.948 19.3437 14.6876 19.8749 12.7292C20.2082 11.5001 20.2082 9.22924 19.8749 7.96883C19.3853 6.09383 18.5624 4.63549 17.2082 3.29174C15.8749 1.95841 14.3957 1.10424 12.5728 0.635492C11.6458 0.39591 9.47908 0.291742 8.60408 0.447992ZM11.4478 2.11466C15.9166 2.80216 19.052 7.03133 18.4062 11.4792C17.5312 17.4167 10.9166 20.5522 5.83325 17.4272C1.49992 14.7605 0.531171 8.94799 3.77075 5.01049C5.59367 2.78133 8.552 1.66674 11.4478 2.11466Z" fill="white"/>
</svg>
