<svg width="23" height="19" viewBox="0 0 23 19" fill="none" xmlns="http://www.w3.org/2000/svg">
<path d="M2.17656 0.166691C1.69739 0.375025 1.19739 0.833359 0.947394 1.31252C0.718227 1.73961 0.718227 1.73961 0.686977 8.91669C0.655727 17.0104 0.634894 16.7188 1.42656 17.5C2.22864 18.2917 1.64531 18.25 12.2286 18.25C21.6349 18.25 21.6766 18.25 21.9578 18.0313C22.3016 17.7604 22.3328 17.2084 22.0203 16.8959C21.812 16.6875 21.6766 16.6875 12.3224 16.6875H2.83281L2.53073 16.3854L2.22864 16.0834V10.5V4.92711L4.53073 4.89586C6.80156 4.86461 6.83281 4.86461 7.03073 4.61461C7.29114 4.30211 7.28073 3.82294 7.02031 3.56252C6.82239 3.36461 6.67656 3.35419 4.50989 3.35419H2.20781L2.24948 2.66669C2.31198 1.63544 2.41614 1.58336 4.15573 1.58336C5.59323 1.58336 6.12448 1.47919 6.29114 1.16669C6.45781 0.854191 6.41614 0.458359 6.18698 0.229191C5.99948 0.0416908 5.84323 0.0208588 4.23906 0.0208588C3.03073 0.0312748 2.39531 0.0729408 2.17656 0.166691Z" fill="white"/>
</svg>
