<svg width="54" height="54" viewBox="0 0 54 54" fill="none" xmlns="http://www.w3.org/2000/svg">
<path d="M16.2187 0.521931C15.2708 0.803181 14.5937 1.1886 13.9478 1.83443C13.2812 2.5011 12.8958 3.1261 12.6145 4.02193C12.3749 4.80318 12.3333 7.65735 12.5624 8.5011C12.7603 9.24068 13.1978 10.0636 13.677 10.5844C13.9895 10.9282 14.0833 11.1053 14.0833 11.3969V11.7615L10.9166 12.824C9.06242 13.4386 7.61451 13.9803 7.40617 14.1365C6.92701 14.4907 6.49992 15.1469 6.42701 15.6678C6.33326 16.3344 6.41659 30.7615 6.52076 31.0219L6.60409 31.2615H4.28117C2.99992 31.2615 1.78117 31.3136 1.56242 31.3657C1.09367 31.5011 0.468673 32.1678 0.385339 32.6365C0.354089 32.824 0.333256 34.6782 0.354089 36.7511C0.385339 40.3865 0.395756 40.5323 0.604089 40.8136C0.718673 40.9698 0.979089 41.2094 1.16659 41.3344C1.51034 41.574 1.51034 41.574 6.07284 41.574H10.6458V46.7303V51.8865H7.20826H3.77076V52.7719V53.6573H26.9999H50.2291V52.7719V51.8865H47.8124L45.3853 51.8761L45.7916 51.6469C46.0103 51.5219 46.5937 51.1365 47.0833 50.7928C53.1353 46.5428 55.3228 38.5844 52.2812 31.8344C50.8333 28.6157 48.2395 25.9178 45.0728 24.3448C44.4478 24.0323 43.6562 23.699 43.3333 23.5948C42.9999 23.4907 42.7291 23.3761 42.7291 23.3344C42.7291 23.3032 42.8541 23.0428 43.0103 22.7615C43.2499 22.3344 43.302 22.1261 43.302 21.5219C43.2916 20.6261 43.0312 20.0011 42.427 19.4073C42.0312 19.0219 41.2395 18.6886 33.7603 15.699L25.5312 12.4073L23.2499 12.0219C20.9999 11.6573 20.9583 11.6365 20.9583 11.3969C20.9583 11.2511 21.1666 10.8969 21.4478 10.5532C22.4583 9.3136 22.7916 8.0636 22.6978 5.84485C22.6249 3.9386 22.2291 2.9386 21.1353 1.85526C19.802 0.532349 17.9166 0.0219307 16.2187 0.521931ZM18.9999 2.38651C19.677 2.71985 20.302 3.36568 20.6249 4.05318C20.8853 4.59485 20.9062 4.77193 20.9374 6.20943C20.9687 7.6261 20.9478 7.84485 20.7395 8.39693C20.1249 10.0428 18.2603 10.9803 16.5833 10.4907C15.4374 10.1573 14.4478 9.08443 14.1978 7.90735C13.9478 6.78235 14.0937 4.65735 14.4687 3.92818C14.8437 3.20943 15.7499 2.45943 16.5833 2.1886C17.1041 2.02193 18.4791 2.13651 18.9999 2.38651ZM16.9478 12.2928C17.5312 12.3761 18.3437 12.3136 19.0103 12.1469C19.2916 12.074 19.2916 12.074 19.2916 12.5844V13.0948L22.177 13.5844L25.0624 14.074L33.0312 17.2511C41.8228 20.7615 41.5833 20.6365 41.5833 21.5115C41.5833 21.8865 41.5208 22.0323 41.2708 22.2823C40.927 22.6365 40.427 22.7615 39.9687 22.6261C39.7916 22.574 36.6458 21.4073 32.9583 20.0219L26.2708 17.5115H24.4999H22.7291V34.699V51.8865H20.5416H18.3541V40.324V28.7615H17.5208H16.6874V40.324V51.8865H14.552H12.4166V46.7303V41.574H12.6666C12.9687 41.574 13.5208 41.2094 13.8124 40.8136C14.0208 40.5323 14.0312 40.3865 14.0624 36.699C14.0833 34.1678 14.0624 32.7511 13.9791 32.4907C13.8333 31.9803 13.3437 31.5011 12.8228 31.3657L12.4166 31.2511V24.3865V17.5115H11.5312H10.6458V23.9282C10.6458 29.6782 10.6249 30.3761 10.4791 30.6365C9.95826 31.5115 8.65617 31.4386 8.20826 30.5011C8.05201 30.1573 8.04159 29.5115 8.06242 22.9907C8.09367 15.9803 8.09367 15.8448 8.30201 15.6365C8.43742 15.5115 9.92701 14.9594 12.1562 14.2094L15.802 12.9803L15.8333 12.5219C15.8645 12.1157 15.8853 12.0844 16.0937 12.1469C16.2187 12.1782 16.6041 12.2511 16.9478 12.2928ZM30.8333 21.074C35.2291 22.7198 35.6249 22.8865 35.3124 22.9594C33.927 23.324 32.9687 23.6157 32.2187 23.9178C29.3541 25.0844 26.7499 27.3344 24.9478 30.2094L24.3958 31.0844V25.1886V19.2823H25.2083C25.9999 19.2719 26.0937 19.3032 30.8333 21.074ZM39.427 24.4907C44.7916 25.0115 49.1666 28.3865 51.1041 33.5011C51.6874 35.0115 51.8333 35.9698 51.8437 38.0844C51.8437 39.6157 51.802 40.2615 51.6562 40.949C50.4895 46.3448 46.3541 50.4803 40.9583 51.6469C40.2708 51.7928 39.6249 51.8344 38.0937 51.8344C36.3749 51.824 35.9895 51.7928 35.1249 51.5844C32.6249 50.9594 30.4791 49.8032 28.7291 48.1365C23.1041 42.7719 22.9999 33.9073 28.4999 28.449C31.052 25.9073 34.3333 24.5219 38.0416 24.4073C38.2395 24.3969 38.8645 24.4386 39.427 24.4907ZM10.0728 34.0844C8.06242 35.4282 7.85409 35.5323 7.20826 35.5323C6.56242 35.5323 6.35409 35.4282 4.34367 34.0844L2.78117 33.0323H7.20826H11.6353L10.0728 34.0844ZM3.76034 35.7719C5.76034 37.1053 6.10409 37.2511 7.26034 37.2511C8.38534 37.2407 8.57284 37.1678 10.6874 35.7511C11.4687 35.2198 12.177 34.7615 12.2603 34.7303C12.3958 34.6886 12.4166 35.0532 12.4166 37.2928V39.9073H7.26034H2.10409V37.2928C2.10409 35.2407 2.13534 34.699 2.23951 34.7615C2.30201 34.8032 2.98951 35.2615 3.76034 35.7719ZM24.8124 45.9178C25.9478 47.949 27.8958 49.949 30.0728 51.3136L30.9895 51.8865H27.6978H24.3958V48.6053C24.3958 46.8032 24.4166 45.324 24.4374 45.324C24.4583 45.324 24.6353 45.5948 24.8124 45.9178Z" fill="white"/>
</svg>
