<svg width="16" height="9" viewBox="0 0 16 9" fill="none" xmlns="http://www.w3.org/2000/svg">
<path d="M0.739746 0.354101C0.416829 0.479101 0.239746 0.749934 0.239746 1.09368C0.239746 1.36452 0.500163 1.67702 2.03141 3.20827C3.71891 4.89576 3.82308 5.03118 3.7085 5.24993C3.50016 5.63535 3.55225 6.64576 3.81266 7.17701C4.61475 8.82284 7.021 8.97909 8.00016 7.43743L8.30225 6.96868L11.4689 6.91659C14.5627 6.86451 14.646 6.85409 14.8647 6.63534C15.146 6.3541 15.1668 5.8541 14.9064 5.56243C14.7293 5.36451 14.5939 5.3541 11.5522 5.3541H8.396L8.07308 4.83326C7.61475 4.08326 6.90641 3.68743 6.021 3.68743C5.65641 3.68743 5.26058 3.73951 5.146 3.80201C4.94808 3.90618 4.75016 3.73951 3.146 2.14577C2.16683 1.17702 1.271 0.354101 1.15641 0.322851C1.04183 0.291601 0.854329 0.302018 0.739746 0.354101ZM6.59391 5.4791C7.22933 6.07285 6.54183 7.21868 5.71891 6.90618C5.34391 6.77076 5.17725 6.51034 5.16683 6.09368C5.16683 5.34368 6.04183 4.95826 6.59391 5.4791Z" fill="white"/>
</svg>
