<svg width="21" height="21" viewBox="0 0 21 21" fill="none" xmlns="http://www.w3.org/2000/svg">
<path d="M11.7294 0.687378C7.70855 1.14571 4.22939 3.39571 2.21897 6.83321C0.125223 10.427 -0.0101932 14.8124 1.85439 18.552C2.87522 20.604 3.39605 21.1353 4.01064 20.7395C4.14605 20.6457 4.31272 20.4582 4.37522 20.3228C4.50022 20.0415 4.46897 19.9686 3.64605 18.6249C2.62522 16.9478 2.13564 15.1457 2.14606 13.0311C2.14606 11.6249 2.29189 10.729 2.69814 9.53113C3.95855 5.84363 7.27105 3.02071 11.1252 2.34363C12.1773 2.16654 14.1148 2.18738 15.1252 2.40613C16.3335 2.65613 17.5731 3.13529 18.5419 3.72904C20.1044 4.68738 19.9377 4.61446 20.2606 4.43738C20.6565 4.21863 20.844 3.80196 20.719 3.46863C20.521 2.96863 18.521 1.81238 16.9273 1.28113C15.344 0.749878 13.2815 0.510294 11.7294 0.687378Z" fill="white"/>
</svg>
