<svg width="23" height="20" viewBox="0 0 23 20" fill="none" xmlns="http://www.w3.org/2000/svg">
<path d="M1.04178 1.13533C0.698032 1.40616 0.666782 1.95824 0.979281 2.27074C1.18761 2.47908 1.32303 2.47908 10.6772 2.47908H20.1668L20.4689 2.78116C20.7293 3.05199 20.7709 3.16658 20.7709 3.66658V4.24991H15.2084C9.75011 4.24991 9.64595 4.24991 9.37511 4.46866C9.03136 4.73949 9.00011 5.29158 9.31261 5.60408C9.52095 5.81241 9.65636 5.81241 15.1459 5.81241H20.7709V11.4166C20.7709 17.6457 20.8022 17.3749 20.0626 17.5832C19.8543 17.6353 19.0834 17.6874 18.3543 17.6874C17.1564 17.6874 17.0001 17.7082 16.8126 17.8957C16.5522 18.1562 16.5418 18.6666 16.8022 18.927C16.9168 19.0416 17.1772 19.1666 17.3855 19.2082C18.0209 19.3228 20.3647 19.1978 20.7709 19.0207C21.3022 18.7916 21.7918 18.3541 22.0522 17.8541C22.2814 17.427 22.2814 17.4166 22.3126 10.2916C22.3334 4.86449 22.3126 3.04158 22.2084 2.68741C22.0314 2.02074 21.198 1.20824 20.5418 1.04158C20.1876 0.947826 17.5418 0.916576 10.6876 0.916576C1.3647 0.916576 1.32303 0.916576 1.04178 1.13533Z" fill="white"/>
</svg>
