<svg width="11" height="11" viewBox="0 0 11 11" fill="none" xmlns="http://www.w3.org/2000/svg">
<path d="M4.13466 0.135468C1.84299 0.760467 0.301328 2.7813 0.301328 5.1563C0.280495 9.78129 5.82216 12.125 9.11382 8.89588C10.218 7.81255 10.8117 6.2813 10.6867 4.80213C10.5097 2.56255 8.94716 0.697967 6.80132 0.135468C6.08257 -0.0520325 4.82216 -0.0520325 4.13466 0.135468ZM6.99924 1.8438C8.17632 2.4063 8.99924 3.56255 9.12424 4.83338C9.25966 6.08338 8.58257 7.50005 7.54091 8.19796C6.50966 8.87505 5.10341 9.02088 4.04091 8.54171C3.39508 8.26046 2.54091 7.45838 2.22841 6.8438C1.43674 5.2813 1.93674 3.18755 3.32216 2.22922C4.08258 1.69797 4.65549 1.5313 5.62424 1.57297C6.27007 1.60422 6.64507 1.67713 6.99924 1.8438Z" fill="white"/>
</svg>
