<svg width="52" height="43" viewBox="0 0 52 43" fill="none" xmlns="http://www.w3.org/2000/svg">
<path d="M23.7292 0.822994C23.6042 0.895912 23.4167 1.07299 23.3125 1.20841C23.1562 1.44799 23.1354 1.91674 23.1042 6.60424C23.0833 10.8855 23.0521 11.7397 22.9375 11.698C22.8542 11.6667 22.5937 11.5834 22.3542 11.5105C22.125 11.4376 21.8854 11.3022 21.8333 11.2084C21.6354 10.8438 21.0729 10.6876 19.9687 10.6876H18.9271L18.7083 10.198L18.4896 9.70841L19.2187 8.97924C20.0521 8.12508 20.1667 7.92716 20.1667 7.38549C20.1667 6.82299 19.6354 6.11466 18.4167 5.05216C17.4479 4.19799 16.8854 4.28133 15.6875 5.43758L14.9687 6.13549L14.4687 5.92716L13.9687 5.72924L13.9167 4.53133C13.8646 3.23966 13.7812 3.03133 13.25 2.70841C12.9792 2.54174 12.7083 2.51049 11.5208 2.51049C9.9375 2.51049 9.64583 2.60424 9.26042 3.17716C9.05208 3.48966 9.02083 3.65633 9.02083 4.63549V5.73966L8.57292 5.91674C8.33333 6.02091 8.09375 6.10424 8.04167 6.10424C7.98958 6.10424 7.58333 5.76049 7.14583 5.33341C5.92708 4.14591 5.48958 4.15633 4.125 5.43758C2.92708 6.57299 2.5625 7.28133 2.88542 7.90633C2.94792 8.03133 3.33333 8.46883 3.72917 8.87508L4.45833 9.61466L4.27083 10.1563L4.07292 10.6876H2.97917C2.08333 10.6876 1.82292 10.7292 1.55208 10.8959C0.916667 11.2813 0.84375 11.5105 0.84375 13.1355C0.84375 14.4167 0.875 14.6355 1.05208 14.9584C1.38542 15.5313 1.8125 15.6876 3.03125 15.6876H4.08333L4.26042 16.1772L4.4375 16.6563L3.70833 17.4063C2.69792 18.4584 2.54167 18.9688 3.03125 19.6876C3.17708 19.8959 3.29167 20.1147 3.29167 20.1563C3.29167 20.2084 3.13542 20.6667 2.9375 21.1667C1.83333 24.0417 1.63542 27.5938 2.39583 30.6147C3.90625 36.573 8.69792 41.1251 14.7292 42.3542C18.4167 43.1042 22.625 42.4063 25.7812 40.5209C27.5937 39.448 28.0104 38.9688 27.5937 38.4167C27.2292 37.9272 26.8542 37.9792 25.7604 38.6876C24.4792 39.5105 23.6979 39.8959 22.4271 40.323C20.6354 40.9167 19.8021 41.0522 17.8229 41.0522C15.8437 41.0522 15.0104 40.9167 13.2187 40.323C8.1875 38.6459 4.52083 34.2917 3.64583 28.9167C3.44792 27.7188 3.51042 24.9897 3.76042 23.8647C3.90625 23.198 4.39583 21.5834 4.51042 21.3855C4.54167 21.3334 4.66667 21.3959 4.79167 21.5105C5.11458 21.8126 5.61458 21.948 6 21.8334C6.17708 21.7813 6.3125 21.7605 6.3125 21.7813C6.3125 21.8022 6.17708 22.2292 6.01042 22.7397C5.47917 24.323 5.34375 25.3126 5.40625 27.198C5.46875 29.2084 5.73958 30.3751 6.52083 32.0105C8.65625 36.5001 12.9583 39.2292 17.8542 39.2292C23.8958 39.2292 29.0104 34.9063 30.125 28.8647C30.375 27.4688 30.2812 25.0522 29.9271 23.6772C29.3437 21.4688 28.2708 19.6042 26.6354 17.9688C26.0833 17.4167 25.2604 16.7188 24.8125 16.4167C24.1042 15.948 22.75 15.2501 22.125 15.0313C21.9687 14.9792 21.9583 14.9167 22.0417 14.698C22.1042 14.5417 22.1458 14.1147 22.1458 13.7501C22.1458 12.9584 22.0417 12.9792 23.4375 13.5626C25.1667 14.2917 26.7083 15.3751 28.1458 16.8542C30.0625 18.8438 31.3021 21.198 31.9062 24.0209C32.1667 25.2709 32.1667 28.3022 31.8958 29.5313C31.4583 31.5626 30.7708 33.1459 29.5937 34.9167C29.1458 35.5834 28.8125 36.1876 28.8125 36.3334C28.8125 36.6667 29.2187 37.0417 29.5833 37.0417C29.9479 37.0417 30.3542 36.6355 31.0625 35.5626C32.4375 33.4792 33.2917 31.1251 33.6562 28.3647L33.7187 27.8751H42.2083H50.6979L50.9479 27.6147C51.2812 27.2917 51.2812 26.8959 50.9479 26.573C50.7187 26.3438 50.6146 26.3126 49.8542 26.3126H49.0208V22.9792C49.0208 19.7813 49.0104 19.6355 48.8125 19.4376C48.5 19.1251 47.9479 19.1563 47.6771 19.5001C47.4687 19.7709 47.4583 19.8959 47.4583 23.0417V26.3126H46.0521H44.6458L44.6667 15.8647L44.6979 5.42716L46.0833 5.39591L47.4583 5.36466V10.9272C47.4583 16.3959 47.4583 16.5001 47.6771 16.7709C47.9479 17.1147 48.5 17.1459 48.8125 16.8334C49.0208 16.6251 49.0208 16.4897 49.0208 10.6563C49.0208 4.92716 49.0104 4.68758 48.8125 4.36466C48.5104 3.87508 48.0729 3.79174 45.8021 3.83341C43.6771 3.86466 43.5208 3.90633 43.2396 4.50008C43.1042 4.79174 43.0833 6.23966 43.0833 15.573V26.3126H42.7187H42.3542V17.8959C42.3542 9.71883 42.3437 9.47924 42.1458 9.15633C42.0312 8.96883 41.8125 8.78133 41.6562 8.73966C41.5 8.68758 40.4375 8.65633 39.3125 8.65633C37.3958 8.65633 37.25 8.66674 36.9687 8.87508C36.8125 8.98966 36.6146 9.20841 36.5521 9.34383C36.4479 9.53133 36.4167 11.5209 36.4167 17.948V26.3126H36.0521H35.6875V15.7813C35.6875 8.23966 35.6562 5.19799 35.5729 5.03133C35.2812 4.45841 35.1875 4.43758 32.7708 4.43758C30.8646 4.43758 30.4896 4.45841 30.2812 4.60424C29.7604 4.97924 29.75 5.07299 29.75 10.8647L29.7396 16.2605L29.3854 15.8438L29.0208 15.4272V11.7292C29.0208 7.54174 29.0208 7.56258 28.3021 7.56258C28.0312 7.56258 27.8437 7.63549 27.7083 7.78133C27.5208 7.98966 27.5104 8.21883 27.4792 11.0105C27.4583 12.6667 27.4271 14.0209 27.4062 14.0209C27.375 14.0209 27.1354 13.8647 26.8646 13.6667C26.5833 13.4688 25.9896 13.1042 25.5312 12.8542L24.6979 12.3959L24.6667 7.32299L24.6458 2.25008H26.0417H27.4375L27.4792 3.59383C27.5104 4.73966 27.5417 4.96883 27.7083 5.15633C27.9687 5.43758 28.5312 5.44799 28.8125 5.16674C29 4.97924 29.0208 4.82299 29.0208 3.17716V1.39591L28.6667 1.04174L28.3125 0.68758H26.1458C24.6042 0.697994 23.8958 0.729244 23.7292 0.822994ZM12.3229 4.69799C12.3854 6.05216 12.4583 6.41674 12.7917 6.79174C12.9583 6.97924 13.1458 7.14591 13.2083 7.14591C13.2604 7.14591 13.625 7.28133 14.0208 7.45841C15.2083 7.97924 15.5833 7.86466 16.7812 6.63549L17.2917 6.10424L17.8958 6.69799C18.2292 7.03133 18.5 7.34383 18.5 7.40633C18.5 7.46883 18.1667 7.84383 17.7708 8.23966C17 9.00008 16.8125 9.37508 16.9479 9.90633C17.1146 10.573 17.5937 11.5834 17.8854 11.8855C18.1875 12.1876 18.2187 12.198 19.3854 12.2292L20.5833 12.2709V13.198V14.1251H19.4687C17.9687 14.1251 17.8333 14.2084 17.3333 15.4376C16.7083 16.9584 16.7292 17.0522 17.7187 18.073C18.1458 18.5209 18.5 18.9167 18.5 18.9688C18.5 19.0209 18.2292 19.3334 17.9062 19.6667L17.3125 20.2709L16.5208 19.4897C15.6979 18.698 15.4062 18.5417 14.8229 18.6355C14.4583 18.6876 13.2396 19.1876 12.8854 19.4376C12.5417 19.6772 12.3646 20.323 12.3542 21.3334V22.2292L11.9271 22.3022C11.6979 22.3438 11.3021 22.3438 11.0521 22.3126L10.6042 22.2397L10.5625 21.1042C10.5417 20.1563 10.5 19.9272 10.3125 19.6772C10.0312 19.3126 8.41667 18.6042 7.84375 18.6042C7.47917 18.6042 7.35417 18.6876 6.625 19.3959C5.67708 20.3126 5.625 20.323 4.90625 19.5209L4.4375 19.0001L5.20833 18.1772C6.23958 17.1042 6.27083 16.9376 5.71875 15.6042C5.16667 14.2605 5.07292 14.1876 3.57292 14.1251L2.40625 14.073L2.375 13.1563L2.34375 12.2501H3.46875C5.05208 12.2501 5.10417 12.2188 5.78125 10.6147C6.28125 9.44799 6.21875 9.20841 5.13542 8.10424L4.38542 7.34383L5.04167 6.70841L5.69792 6.07299L6.51042 6.87508C7.55208 7.91674 7.79167 7.95841 9.16667 7.38549C10.4271 6.85424 10.5208 6.70841 10.5625 5.34383C10.5833 4.76049 10.6146 4.21883 10.6354 4.14591C10.6771 4.05216 10.9062 4.02091 11.4896 4.04174L12.3021 4.07299L12.3229 4.69799ZM34.125 16.1563C34.125 25.8334 34.1146 26.3126 33.9375 26.3126C33.7812 26.3126 33.7396 26.1459 33.625 25.1355C33.3958 22.9688 32.8437 21.1667 31.8229 19.2501L31.3125 18.2917V12.1459V6.00008H32.7187H34.125V16.1563ZM40.7917 18.2397V26.3126H39.3854H37.9792V18.3126C37.9792 13.9063 38.0104 10.2709 38.0521 10.2397C38.0833 10.198 38.7187 10.1667 39.4583 10.1667H40.7917V18.2397ZM20.875 16.2709C21.3542 16.4063 21.9167 16.6147 22.1354 16.7188C22.4896 16.9063 22.5208 16.9584 22.4792 17.2709C22.3958 18.0001 23.2604 18.4272 23.8021 17.9376C24.0104 17.7501 24.0312 17.7501 24.5729 18.1772C25.1771 18.6355 26.0833 19.5626 26.5625 20.1876L26.8542 20.573L26.6354 20.8542C26.3437 21.2292 26.3646 21.573 26.6875 21.8959C26.9062 22.1251 27.0104 22.1563 27.3125 22.0938C27.6562 22.0313 27.6771 22.0522 27.875 22.4792C28.1771 23.1563 28.5729 24.6251 28.6562 25.3438L28.7292 26.0001H27.5208C26.4479 26.0001 26.2917 26.0209 26.1042 26.2084C25.7917 26.5209 25.8229 27.073 26.1667 27.3438C26.4062 27.5313 26.5937 27.5626 27.5729 27.5626C28.6771 27.5626 28.7083 27.573 28.7083 27.7917C28.7083 28.2709 28.3125 29.9272 28.0104 30.6876L27.7187 31.4688L27.3125 31.4376C26.5625 31.3647 26.1562 32.1042 26.625 32.698L26.8333 32.9584L26.4375 33.4688C25.9271 34.1147 25.1458 34.8855 24.5 35.3959L23.9896 35.8022L23.7604 35.5834C23.2292 35.0938 22.375 35.5313 22.4896 36.2501C22.5417 36.5938 22.5312 36.6042 21.9479 36.8647C21.3229 37.1355 19.9271 37.5001 19.1042 37.6147L18.6042 37.6772V36.4897C18.6042 35.448 18.5833 35.2813 18.3958 35.0834C18.1146 34.7813 17.5312 34.7813 17.25 35.0626C17.0625 35.2501 17.0417 35.4063 17.0417 36.4688C17.0417 37.5001 17.0208 37.6667 16.875 37.6667C16.4375 37.6667 14.5521 37.2084 13.8854 36.948C13.1458 36.6459 13.1354 36.6459 13.1667 36.2917C13.2396 35.5417 12.3646 35.0522 11.8854 35.5834C11.7812 35.698 11.6458 35.7501 11.5625 35.7084C11.1146 35.4584 9.94792 34.3751 9.42708 33.7292L8.8125 32.9584L9.02083 32.698C9.29167 32.3542 9.28125 32.0417 9.01042 31.6876C8.82292 31.448 8.71875 31.4063 8.35417 31.4376L7.92708 31.4688L7.625 30.6876C7.33333 29.9272 6.9375 28.2709 6.9375 27.7917C6.9375 27.573 6.96875 27.5626 8.07292 27.5626C9.05208 27.5626 9.23958 27.5313 9.47917 27.3438C9.82292 27.073 9.85417 26.5209 9.54167 26.2084C9.35417 26.0209 9.19792 26.0001 8.125 26.0001H6.90625L6.97917 25.3959C7.09375 24.4272 7.45833 23.198 7.9375 22.1667C8.40625 21.1459 8.76042 20.5834 8.92708 20.5834C8.97917 20.5834 9.02083 21.0834 9.02083 21.698C9.02083 22.948 9.16667 23.3542 9.71875 23.6355C10.125 23.8438 11.4271 23.9376 12.4062 23.823C13.1667 23.7292 13.2604 23.698 13.5729 23.3542L13.9167 22.9792V21.8438C13.9167 20.6042 13.9167 20.6147 14.6042 20.3438L15.0312 20.1772L15.8021 20.9584C17.0208 22.1876 17.4896 22.1876 18.7812 20.9688C19.8542 19.9584 20.1667 19.5105 20.1667 19.0001C20.1667 18.448 20.0521 18.2605 19.2083 17.3959L18.4896 16.6563L18.6771 16.2709L18.8646 15.8751L19.4375 15.948C19.75 15.9897 20.3958 16.1355 20.875 16.2709Z" fill="white"/>
</svg>
