<svg width="10" height="9" viewBox="0 0 10 9" fill="none" xmlns="http://www.w3.org/2000/svg">
<path d="M2.59347 0.76048C2.34347 1.00006 2.33306 1.05215 2.33306 2.53131C2.33306 3.8334 2.31222 4.04173 2.16639 4.04173C1.88514 4.04173 0.926807 5.09381 0.79139 5.56256C0.499723 6.54173 0.708057 7.32298 1.44764 8.05215C2.51014 9.11465 3.83306 9.11465 4.91639 8.03131C5.20805 7.73965 5.45805 7.41673 5.45805 7.3334C5.45805 7.18756 5.70805 7.16673 7.38514 7.16673C9.3018 7.16673 9.32264 7.16673 9.57264 6.90631C9.91639 6.57298 9.91639 6.09381 9.57264 5.76048C9.32264 5.50006 9.3018 5.50006 7.38514 5.50006C5.70805 5.50006 5.45805 5.47923 5.45805 5.3334C5.45805 5.12506 4.37472 4.04173 4.16639 4.04173C4.02056 4.04173 3.99972 3.8334 3.99972 2.53131C3.99972 1.05215 3.98931 1.00006 3.73931 0.76048C3.58306 0.593813 3.36431 0.500063 3.16639 0.500063C2.96847 0.500063 2.74972 0.593813 2.59347 0.76048ZM3.73931 5.76048C3.90597 5.91673 3.99972 6.13548 3.99972 6.3334C3.99972 6.53131 3.90597 6.75006 3.73931 6.90631C3.22889 7.42715 2.33306 7.06256 2.33306 6.3334C2.33306 5.90631 2.73931 5.50006 3.16639 5.50006C3.36431 5.50006 3.58306 5.59381 3.73931 5.76048Z" fill="white"/>
</svg>
