<svg width="35" height="17" viewBox="0 0 35 17" fill="none" xmlns="http://www.w3.org/2000/svg">
<path d="M10.1563 0.500006C9.48965 0.697923 8.68757 1.43751 8.3959 2.12501C8.11465 2.78126 8.0834 3.73959 8.32298 4.31251L8.48965 4.70834L6.92715 6.23959C6.06257 7.09376 5.31257 7.80209 5.26048 7.81251C5.2084 7.83334 4.96882 7.78126 4.73965 7.68751C4.12507 7.43751 3.13548 7.46876 2.51048 7.77084C1.86465 8.06251 1.19798 8.78126 0.947983 9.42709C0.718817 10.0313 0.7709 11.1458 1.05215 11.7396C1.75007 13.1875 3.55215 13.8125 5.00007 13.1042C6.35423 12.4375 6.98965 10.8646 6.47923 9.42709L6.32298 8.98959L7.93757 7.43751L9.55215 5.88542L10.0938 6.07292C10.3959 6.17709 10.8438 6.26042 11.1042 6.26042C11.5417 6.26042 11.7709 6.19792 12.6251 5.84376L12.948 5.71876L17.2813 9.04167L21.6251 12.3646L21.5417 12.7292C21.3959 13.4479 21.4792 14.2708 21.7813 14.8646C22.2917 15.9167 23.2396 16.4792 24.4792 16.4792C26.4688 16.4688 27.8751 14.4167 27.1667 12.5417L26.9688 12.0417L28.2917 10.6771L29.6146 9.30209L30.0209 9.44792C30.2501 9.53126 30.7292 9.59376 31.1042 9.59376C31.9792 9.60417 32.6771 9.29167 33.2605 8.62501C34.948 6.70834 33.6146 3.76042 31.0521 3.76042C29.0417 3.76042 27.6355 5.68751 28.2709 7.57292L28.4792 8.18751L27.1771 9.57292C26.4584 10.3333 25.8646 10.9583 25.8438 10.9583C25.8334 10.9583 25.6459 10.8854 25.448 10.8021C24.8438 10.5521 23.7396 10.5938 23.1355 10.9063C22.8542 11.0417 22.5834 11.125 22.5209 11.0938C22.4063 11.0208 18.3855 7.92709 15.4896 5.68751C14.4688 4.90626 13.8855 4.37501 13.9063 4.28126C13.9271 4.19792 13.9688 3.84376 14.0001 3.48959C14.0626 2.56251 13.8126 1.87501 13.1459 1.21876C12.323 0.406256 11.2813 0.14584 10.1563 0.500006ZM11.6771 2.04167C12.7084 2.47917 12.7084 4.05209 11.6771 4.54167C10.7396 4.98959 9.72923 4.34376 9.72923 3.30209C9.72923 2.75001 9.93757 2.38542 10.4063 2.10417C10.8021 1.85417 11.1876 1.84376 11.6771 2.04167ZM31.8751 5.55209C32.4584 6.01042 32.6251 6.78126 32.2501 7.38542C31.698 8.30209 30.2709 8.23959 29.823 7.28126C29.6042 6.83334 29.6042 6.58334 29.7917 6.11459C30.1042 5.38542 31.2605 5.07292 31.8751 5.55209ZM4.71882 9.54167C5.00007 9.84376 5.06257 10 5.06257 10.3854C5.06257 11.2708 4.54173 11.8229 3.69798 11.8229C2.57298 11.8229 1.91673 10.4479 2.63548 9.60417C3.00007 9.16667 3.23965 9.07292 3.85423 9.12501C4.29173 9.15626 4.42715 9.21876 4.71882 9.54167ZM25.2084 12.4271C26.2709 13.2604 25.7709 14.9167 24.448 14.9167C23.6042 14.9167 23.0417 14.375 23.0417 13.5729C23.0417 12.7188 23.5626 12.2188 24.448 12.2083C24.7813 12.2083 25.0105 12.2708 25.2084 12.4271Z" fill="white"/>
</svg>
