<svg width="43" height="39" viewBox="0 0 43 39" fill="none" xmlns="http://www.w3.org/2000/svg">
<path d="M14.7511 0.312462C11.647 0.687462 9.06364 1.63538 6.80322 3.23954C5.70947 4.01038 3.92822 5.79163 3.15739 6.88538C1.84489 8.72913 0.803222 11.2187 0.417806 13.427C0.146972 14.9687 0.167806 17.4479 0.459472 18.9687C1.59489 24.7187 5.61572 29.302 11.1261 31.125C13.2928 31.8333 16.0949 32.0833 18.2095 31.7395L18.5949 31.6875L18.6261 34.3437L18.6574 37L18.9699 37.4583C19.3449 37.9791 19.8345 38.3333 20.3866 38.4791C20.647 38.552 24.2616 38.5729 30.8657 38.5625C42.0532 38.5312 41.1886 38.5833 41.9282 37.8437C42.6574 37.1145 42.6157 37.7395 42.647 28.7604C42.6678 20.677 42.6678 20.6666 42.4491 20.1458C42.2095 19.5833 41.6886 19.0625 41.147 18.8333C40.8657 18.7187 39.8657 18.6875 36.2095 18.6875H31.6157L31.6991 17.9791C31.8345 16.8229 31.772 14.552 31.5741 13.427C30.8345 9.12496 28.2303 5.17704 24.5949 2.83329C22.897 1.72913 20.6261 0.843712 18.7095 0.520794C17.7199 0.343712 15.4386 0.22913 14.7511 0.312462ZM18.5532 2.07288C23.5532 2.94788 27.897 6.71871 29.522 11.6145C30.0428 13.2083 30.2095 14.3333 30.1991 16.2395C30.1886 17.1562 30.1366 18.0729 30.0949 18.2708L30.0011 18.6354H29.1261C28.5949 18.6354 28.2511 18.5937 28.2616 18.5312C28.6157 16.2708 28.4491 14.0104 27.7616 12.0104C27.2511 10.5208 26.0949 8.55204 25.6157 8.36454C25.2824 8.23954 24.8657 8.42704 24.647 8.82288C24.4699 9.14579 24.397 8.97913 25.3553 10.5416C25.9491 11.5104 26.4282 12.7395 26.6782 13.9583C26.8866 14.9583 26.9178 16.8854 26.7407 17.927L26.6053 18.6875H23.522C20.1157 18.6875 19.9491 18.7187 19.3032 19.375C18.6678 20.0208 18.6574 20.0208 18.6053 23.4791L18.5532 26.6562L18.0324 26.7916C17.2511 27 14.8761 26.9791 13.8761 26.7708C12.647 26.5 11.4178 26.0208 10.4595 25.4375C9.0428 24.5729 9.03239 24.5729 8.71989 24.7395C8.34489 24.9479 8.15739 25.3645 8.28239 25.6979C8.51155 26.302 11.1053 27.677 12.8032 28.1145C14.3345 28.5 15.7616 28.625 17.147 28.4791C17.7928 28.4166 18.3657 28.3541 18.4386 28.3437C18.5741 28.3229 18.6574 29.927 18.522 30.0625C18.3241 30.2604 16.0324 30.3958 14.772 30.2708C8.29281 29.6354 3.24072 25.0416 1.98031 18.625C1.69906 17.2395 1.73031 14.7083 2.03239 13.2708C3.10531 8.19788 6.74072 4.13538 11.6053 2.55204C12.4595 2.27079 13.6782 2.02079 14.8553 1.87496C15.5116 1.79163 17.5949 1.90621 18.5532 2.07288ZM40.8449 20.5104C41.0636 20.7187 41.1053 20.8645 41.1053 21.3958V22.0208H30.6366H20.1678V21.375C20.1678 20.8541 20.2095 20.6875 20.397 20.4895L20.6157 20.25H30.6053H40.5949L40.8449 20.5104ZM41.1053 30V36.4166L40.8032 36.7187L40.5011 37.0208H30.5845H20.6782L20.4282 36.7604L20.1678 36.5104V30.0416V23.5833H30.6366H41.1053V30Z" fill="white"/>
</svg>
