<svg width="25" height="21" viewBox="0 0 25 21" fill="none" xmlns="http://www.w3.org/2000/svg">
<path d="M1.98979 0.562504C1.40645 0.770836 0.989787 1.11459 0.677287 1.64584L0.385621 2.13542L0.354371 10.2396C0.333537 18.3229 0.333537 18.3333 0.552287 18.8542C0.791871 19.4167 1.3127 19.9375 1.85437 20.1667C2.13562 20.2813 3.07312 20.3125 6.42729 20.3125C10.5106 20.3125 10.6565 20.3021 10.8544 20.1042C11.1148 19.8438 11.1252 19.3646 10.8648 19.0521L10.6669 18.8021L6.47937 18.75L2.29187 18.6979L2.09395 18.4479C1.90645 18.2188 1.89604 17.9479 1.89604 11.7604V5.3125H12.3648H22.8335V6.96875C22.8335 8.67708 22.9273 9.19792 23.2502 9.375C23.5627 9.54167 23.9585 9.5 24.1877 9.27083C24.396 9.0625 24.4065 8.95833 24.3752 5.52084L24.344 2L24.0315 1.54167C23.6669 1.03125 23.1773 0.677086 22.6356 0.520836C22.0315 0.35417 2.46895 0.38542 1.98979 0.562504ZM22.5731 2.23959C22.7919 2.44792 22.8335 2.59375 22.8335 3.125V3.75H12.3648H1.89604V3.16667C1.89604 2.66667 1.9377 2.55209 2.19812 2.28125L2.5002 1.97917H12.4169H22.3231L22.5731 2.23959Z" fill="white"/>
</svg>
